<?xml version="1.0" standalone="no"?>
<!DOCTYPE svg PUBLIC "-//W3C//DTD SVG 20010904//EN"
 "http://www.w3.org/TR/2001/REC-SVG-20010904/DTD/svg10.dtd">
<svg version="1.0" xmlns="http://www.w3.org/2000/svg"
 width="256.000000pt" height="256.000000pt" viewBox="0 0 256.000000 256.000000"
 preserveAspectRatio="xMidYMid meet">

<g transform="translate(0.000000,256.000000) scale(0.100000,-0.100000)"
fill="#000000" stroke="none">
<path d="M1237 2470 c-16 -5 -61 -32 -100 -61 -119 -86 -134 -91 -294 -84
-180 8 -182 7 -256 -147 -30 -62 -65 -123 -78 -135 -13 -12 -73 -44 -132 -73
-149 -71 -150 -73 -142 -255 6 -139 6 -140 -22 -193 -15 -29 -50 -84 -77 -122
-44 -62 -50 -77 -50 -120 0 -43 6 -58 50 -120 27 -38 62 -93 77 -122 28 -53
28 -54 22 -193 -8 -182 -8 -184 147 -258 62 -30 123 -65 135 -78 12 -13 44
-73 73 -132 71 -149 72 -150 260 -143 165 7 156 10 310 -98 61 -44 77 -50 120
-50 43 0 59 6 120 50 154 108 145 105 310 98 188 -7 189 -6 260 143 29 59 61
119 73 132 12 13 73 48 135 78 155 74 155 75 148 263 -7 165 -10 156 98 310
44 61 50 77 50 120 0 43 -6 59 -50 120 -108 154 -105 145 -98 310 7 188 7 189
-148 263 -62 30 -123 65 -135 78 -12 13 -44 73 -73 132 -71 149 -73 150 -255
142 -139 -6 -140 -6 -193 22 -29 15 -83 49 -120 75 -70 49 -118 63 -165 48z
m538 -804 c62 -26 95 -118 64 -179 -16 -31 -578 -595 -611 -613 -32 -17 -81
-18 -111 -3 -31 16 -376 359 -393 391 -51 97 35 214 143 193 31 -6 61 -30 171
-138 l132 -131 238 236 c130 131 248 242 262 247 36 14 66 13 105 -3z"/>
</g>
</svg>
